<svg width="1321" height="978" viewBox="0 0 1321 978" fill="none" xmlns="http://www.w3.org/2000/svg">
  <!-- Row 1 -->
  <circle cx="24" cy="24" r="1" fill="#D2D6DB" fill-opacity="0.22"/>
  <circle cx="88" cy="24" r="1" fill="#D2D6DB" fill-opacity="0.22"/>
  <circle cx="152" cy="24" r="1" fill="#D2D6DB" fill-opacity="0.22"/>
  <circle cx="216" cy="24" r="1" fill="#D2D6DB" fill-opacity="0.22"/>
  <circle cx="280" cy="24" r="1" fill="#D2D6DB" fill-opacity="0.22"/>
  <circle cx="344" cy="24" r="1" fill="#D2D6DB" fill-opacity="0.22"/>
  <circle cx="408" cy="24" r="1" fill="#D2D6DB" fill-opacity="0.22"/>
  <circle cx="472" cy="24" r="1" fill="#D2D6DB" fill-opacity="0.22"/>
  <circle cx="536" cy="24" r="1" fill="#D2D6DB" fill-opacity="0.22"/>
  <circle cx="600" cy="24" r="1" fill="#D2D6DB" fill-opacity="0.22"/>
  <circle cx="664" cy="24" r="1" fill="#D2D6DB" fill-opacity="0.22"/>
  <circle cx="728" cy="24" r="1" fill="#D2D6DB" fill-opacity="0.22"/>
  <circle cx="792" cy="24" r="1" fill="#D2D6DB" fill-opacity="0.22"/>
  <circle cx="856" cy="24" r="1" fill="#D2D6DB" fill-opacity="0.22"/>
  <circle cx="920" cy="24" r="1" fill="#D2D6DB" fill-opacity="0.22"/>
  <circle cx="984" cy="24" r="1" fill="#D2D6DB" fill-opacity="0.22"/>
  <circle cx="1048" cy="24" r="1" fill="#D2D6DB" fill-opacity="0.22"/>
  <circle cx="1112" cy="24" r="1" fill="#D2D6DB" fill-opacity="0.22"/>
  <circle cx="1176" cy="24" r="1" fill="#D2D6DB" fill-opacity="0.22"/>
  <circle cx="1240" cy="24" r="1" fill="#D2D6DB" fill-opacity="0.22"/>
  <circle cx="1304" cy="24" r="1" fill="#D2D6DB" fill-opacity="0.22"/>
  
  <!-- Row 2 -->
  <circle cx="24" cy="88" r="1" fill="#D2D6DB" fill-opacity="0.22"/>
  <circle cx="88" cy="88" r="1" fill="#D2D6DB" fill-opacity="0.22"/>
  <circle cx="152" cy="88" r="1" fill="#D2D6DB" fill-opacity="0.22"/>
  <circle cx="216" cy="88" r="1" fill="#D2D6DB" fill-opacity="0.22"/>
  <circle cx="280" cy="88" r="1" fill="#D2D6DB" fill-opacity="0.22"/>
  <circle cx="344" cy="88" r="1" fill="#D2D6DB" fill-opacity="0.22"/>
  <circle cx="408" cy="88" r="1" fill="#D2D6DB" fill-opacity="0.22"/>
  <circle cx="472" cy="88" r="1" fill="#D2D6DB" fill-opacity="0.22"/>
  <circle cx="536" cy="88" r="1" fill="#D2D6DB" fill-opacity="0.22"/>
  <circle cx="600" cy="88" r="1" fill="#D2D6DB" fill-opacity="0.22"/>
  <circle cx="664" cy="88" r="1" fill="#D2D6DB" fill-opacity="0.22"/>
  <circle cx="728" cy="88" r="1" fill="#D2D6DB" fill-opacity="0.22"/>
  <circle cx="792" cy="88" r="1" fill="#D2D6DB" fill-opacity="0.22"/>
  <circle cx="856" cy="88" r="1" fill="#D2D6DB" fill-opacity="0.22"/>
  <circle cx="920" cy="88" r="1" fill="#D2D6DB" fill-opacity="0.22"/>
  <circle cx="984" cy="88" r="1" fill="#D2D6DB" fill-opacity="0.22"/>
  <circle cx="1048" cy="88" r="1" fill="#D2D6DB" fill-opacity="0.22"/>
  <circle cx="1112" cy="88" r="1" fill="#D2D6DB" fill-opacity="0.22"/>
  <circle cx="1176" cy="88" r="1" fill="#D2D6DB" fill-opacity="0.22"/>
  <circle cx="1240" cy="88" r="1" fill="#D2D6DB" fill-opacity="0.22"/>
  <circle cx="1304" cy="88" r="1" fill="#D2D6DB" fill-opacity="0.22"/>
  
  <!-- Row 3 -->
  <circle cx="24" cy="152" r="1" fill="#D2D6DB" fill-opacity="0.22"/>
  <circle cx="88" cy="152" r="1" fill="#D2D6DB" fill-opacity="0.22"/>
  <circle cx="152" cy="152" r="1" fill="#D2D6DB" fill-opacity="0.22"/>
  <circle cx="216" cy="152" r="1" fill="#D2D6DB" fill-opacity="0.22"/>
  <circle cx="280" cy="152" r="1" fill="#D2D6DB" fill-opacity="0.22"/>
  <circle cx="344" cy="152" r="1" fill="#D2D6DB" fill-opacity="0.22"/>
  <circle cx="408" cy="152" r="1" fill="#D2D6DB" fill-opacity="0.22"/>
  <circle cx="472" cy="152" r="1" fill="#D2D6DB" fill-opacity="0.22"/>
  <circle cx="536" cy="152" r="1" fill="#D2D6DB" fill-opacity="0.22"/>
  <circle cx="600" cy="152" r="1" fill="#D2D6DB" fill-opacity="0.22"/>
  <circle cx="664" cy="152" r="1" fill="#D2D6DB" fill-opacity="0.22"/>
  <circle cx="728" cy="152" r="1" fill="#D2D6DB" fill-opacity="0.22"/>
  <circle cx="792" cy="152" r="1" fill="#D2D6DB" fill-opacity="0.22"/>
  <circle cx="856" cy="152" r="1" fill="#D2D6DB" fill-opacity="0.22"/>
  <circle cx="920" cy="152" r="1" fill="#D2D6DB" fill-opacity="0.22"/>
  <circle cx="984" cy="152" r="1" fill="#D2D6DB" fill-opacity="0.22"/>
  <circle cx="1048" cy="152" r="1" fill="#D2D6DB" fill-opacity="0.22"/>
  <circle cx="1112" cy="152" r="1" fill="#D2D6DB" fill-opacity="0.22"/>
  <circle cx="1176" cy="152" r="1" fill="#D2D6DB" fill-opacity="0.22"/>
  <circle cx="1240" cy="152" r="1" fill="#D2D6DB" fill-opacity="0.22"/>
  <circle cx="1304" cy="152" r="1" fill="#D2D6DB" fill-opacity="0.22"/>
  
  <!-- Continue pattern for remaining rows... -->
  <!-- I'll add a representative sample to keep the file manageable -->
  
  <!-- Row 4 -->
  <circle cx="24" cy="216" r="1" fill="#D2D6DB" fill-opacity="0.22"/>
  <circle cx="88" cy="216" r="1" fill="#D2D6DB" fill-opacity="0.22"/>
  <circle cx="152" cy="216" r="1" fill="#D2D6DB" fill-opacity="0.22"/>
  <circle cx="216" cy="216" r="1" fill="#D2D6DB" fill-opacity="0.22"/>
  <circle cx="280" cy="216" r="1" fill="#D2D6DB" fill-opacity="0.22"/>
  <circle cx="344" cy="216" r="1" fill="#D2D6DB" fill-opacity="0.22"/>
  <circle cx="408" cy="216" r="1" fill="#D2D6DB" fill-opacity="0.22"/>
  <circle cx="472" cy="216" r="1" fill="#D2D6DB" fill-opacity="0.22"/>
  <circle cx="536" cy="216" r="1" fill="#D2D6DB" fill-opacity="0.22"/>
  <circle cx="600" cy="216" r="1" fill="#D2D6DB" fill-opacity="0.22"/>
  <circle cx="664" cy="216" r="1" fill="#D2D6DB" fill-opacity="0.22"/>
  <circle cx="728" cy="216" r="1" fill="#D2D6DB" fill-opacity="0.22"/>
  <circle cx="792" cy="216" r="1" fill="#D2D6DB" fill-opacity="0.22"/>
  <circle cx="856" cy="216" r="1" fill="#D2D6DB" fill-opacity="0.22"/>
  <circle cx="920" cy="216" r="1" fill="#D2D6DB" fill-opacity="0.22"/>
  <circle cx="984" cy="216" r="1" fill="#D2D6DB" fill-opacity="0.22"/>
  <circle cx="1048" cy="216" r="1" fill="#D2D6DB" fill-opacity="0.22"/>
  <circle cx="1112" cy="216" r="1" fill="#D2D6DB" fill-opacity="0.22"/>
  <circle cx="1176" cy="216" r="1" fill="#D2D6DB" fill-opacity="0.22"/>
  <circle cx="1240" cy="216" r="1" fill="#D2D6DB" fill-opacity="0.22"/>
  <circle cx="1304" cy="216" r="1" fill="#D2D6DB" fill-opacity="0.22"/>
  
  <!-- Adding pattern using a more efficient approach -->
  <defs>
    <pattern id="dotPattern" x="0" y="0" width="64" height="64" patternUnits="userSpaceOnUse">
      <circle cx="24" cy="24" r="1" fill="#D2D6DB" fill-opacity="0.22"/>
    </pattern>
  </defs>
  
  <!-- Fill the remaining area with the pattern -->
  <rect x="0" y="280" width="1321" height="698" fill="url(#dotPattern)"/>
</svg>